<svg height="512" viewBox="0 0 128 128" width="512" xmlns="http://www.w3.org/2000/svg"><g><path d="m111.75 90.559a1.749 1.749 0 0 0 -1.75-1.75h-92a1.749 1.749 0 0 0 -1.75 1.75v6.217a1.749 1.749 0 0 0 1.75 1.751h92a1.749 1.749 0 0 0 1.75-1.75zm-3.5 1.75v2.718h-88.5v-2.718z"/><path d="m110 105.636h-92a1.75 1.75 0 0 0 0 3.5h92a1.75 1.75 0 0 0 0-3.5z"/><path d="m58.012 74.319a6.062 6.062 0 0 0 11.976 0 23.3 23.3 0 1 0 -11.976 0zm5.988 1.619a2.571 2.571 0 1 1 2.57-2.571 2.574 2.574 0 0 1 -2.57 2.571zm0-43.925a19.8 19.8 0 0 1 5.509 38.82 6.06 6.06 0 0 0 -11.019 0 19.8 19.8 0 0 1 5.51-38.82z"/><path d="m64 84.2a32.381 32.381 0 0 0 20.826-57.179 6.063 6.063 0 0 0 -10.421-5.885 32.391 32.391 0 1 0 -10.405 63.064zm15.133-61.836a2.571 2.571 0 1 1 -2.571 2.571 2.574 2.574 0 0 1 2.571-2.571zm-15.133.563a28.779 28.779 0 0 1 9.09 1.462c-.016.18-.028.361-.028.546a6.059 6.059 0 0 0 9.66 4.884 28.885 28.885 0 1 1 -18.722-6.892z"/><path d="m64 63.116a11.3 11.3 0 1 0 -11.3-11.3 11.315 11.315 0 0 0 11.3 11.3zm0-19.1a7.8 7.8 0 1 1 -7.8 7.8 7.809 7.809 0 0 1 7.8-7.802z"/></g></svg>